<svg width="1888" height="2038" viewBox="0 0 1888 2038" fill="none" xmlns="http://www.w3.org/2000/svg">
<line x1="1886.06" y1="1.06066" x2="1.06075" y2="1886.06" stroke="#C21C1C" stroke-opacity="0.33" stroke-width="3"/>
<line x1="1886.06" y1="11.0607" x2="1.06075" y2="1896.06" stroke="#C21C1C" stroke-opacity="0.33" stroke-width="3"/>
<line x1="1886.06" y1="21.0607" x2="1.06075" y2="1906.06" stroke="#C21C1C" stroke-opacity="0.33" stroke-width="3"/>
<line x1="1886.06" y1="31.0607" x2="1.06075" y2="1916.06" stroke="#C21C1C" stroke-opacity="0.33" stroke-width="3"/>
<line x1="1886.06" y1="41.0607" x2="1.06075" y2="1926.06" stroke="#C21C1C" stroke-opacity="0.33" stroke-width="3"/>
<line x1="1886.06" y1="51.0607" x2="1.06075" y2="1936.06" stroke="#C21C1C" stroke-opacity="0.33" stroke-width="3"/>
<line x1="1886.06" y1="61.0607" x2="1.06075" y2="1946.06" stroke="#C21C1C" stroke-opacity="0.33" stroke-width="3"/>
<line x1="1886.06" y1="71.0607" x2="1.06075" y2="1956.06" stroke="#C21C1C" stroke-opacity="0.33" stroke-width="3"/>
<line x1="1886.06" y1="81.0607" x2="1.06075" y2="1966.06" stroke="#C21C1C" stroke-opacity="0.33" stroke-width="3"/>
<line x1="1886.06" y1="91.0607" x2="1.06075" y2="1976.06" stroke="#C21C1C" stroke-opacity="0.33" stroke-width="3"/>
<line x1="1886.06" y1="101.061" x2="1.06075" y2="1986.06" stroke="#C21C1C" stroke-opacity="0.33" stroke-width="3"/>
<line x1="1886.06" y1="111.061" x2="1.06075" y2="1996.06" stroke="#C21C1C" stroke-opacity="0.33" stroke-width="3"/>
<line x1="1886.06" y1="121.061" x2="1.06075" y2="2006.06" stroke="#C21C1C" stroke-opacity="0.33" stroke-width="3"/>
<line x1="1886.06" y1="131.061" x2="1.06075" y2="2016.06" stroke="#C21C1C" stroke-opacity="0.33" stroke-width="3"/>
<line x1="1886.06" y1="141.061" x2="1.06075" y2="2026.06" stroke="#C21C1C" stroke-opacity="0.33" stroke-width="3"/>
<line x1="1886.06" y1="151.061" x2="1.06075" y2="2036.06" stroke="#C21C1C" stroke-opacity="0.33" stroke-width="3"/>
</svg>
